HIERARCHY
ROOT Hips
{
	OFFSET 0.00000 0.00000 0.00000
	CHANNELS 6 Xposition Yposition Zposition Zrotation Yrotation Xrotation 
	JOINT RightUpLegDummy
	{
		OFFSET 0 0 0
		CHANNELS 3 Zrotation Yrotation Xrotation
		JOINT RightUpLeg
		{
			OFFSET -3.52197 -3.41223 0.04002
			CHANNELS 3 Zrotation Yrotation Xrotation
			JOINT RightLeg
			{
				OFFSET 0.00006 -17.42390 1.60435
				CHANNELS 3 Zrotation Yrotation Xrotation
				JOINT RightFoot
				{
					OFFSET 0.06153 -16.50078 -1.63901
					CHANNELS 3 Zrotation Yrotation Xrotation
					JOINT RightToes
					{
						OFFSET 0.00298 -1.73825 3.34613
						CHANNELS 3 Zrotation Yrotation Xrotation
						End Site
						{
							OFFSET 0.00480 -0.05416 3.85043
						}
					}
				}
			}
		}
	}
	JOINT SpineDummy
	{
		OFFSET 0 0 0
		CHANNELS 3 Zrotation Yrotation Xrotation
		JOINT Spine
		{
			OFFSET 0.00000 4.68130 0.00000
			CHANNELS 3 Zrotation Yrotation Xrotation
			JOINT Spine1
			{
				OFFSET -0.00000 10.10138 0.05002
				CHANNELS 3 Zrotation Yrotation Xrotation
				JOINT HEadDummy
				{
					OFFSET 0 0 0
					CHANNELS 3 Zrotation Yrotation Xrotation
					JOINT Head
					{
						OFFSET -0.00000 3.43865 0.00438
						CHANNELS 3 Zrotation Yrotation Xrotation
						End Site
						{
							OFFSET -0.11417 5.02924 0.98962
						}
					}
				}
				JOINT LeftShoulder1Dummy
				{
					OFFSET 0 0 0
					CHANNELS 3 Zrotation Yrotation Xrotation
					JOINT LeftShoulder1
					{
						OFFSET 3.53937 -0.14262 -0.08662
						CHANNELS 3 Zrotation Yrotation Xrotation
						JOINT LeftArm
						{
							OFFSET 4.04833 -0.00133 0.12681
							CHANNELS 3 Zrotation Yrotation Xrotation
							JOINT LeftForeArm
							{
								OFFSET 10.33880 -0.01036 -0.55515
								CHANNELS 3 Zrotation Yrotation Xrotation
								JOINT LeftHand
								{
									OFFSET 8.69677 0.07543 0.40060
									CHANNELS 3 Zrotation Yrotation Xrotation
									End Site
									{
										OFFSET 5.28377 -0.21905 0.59205
									}
								}
							}
						}
					}
				}
				JOINT RightShoulderDummy
				{
					OFFSET 0 0 0
					CHANNELS 3 Zrotation Yrotation Xrotation
					JOINT RightShoulder
					{
						OFFSET -3.53937 -0.14262 -0.08660
						CHANNELS 3 Zrotation Yrotation Xrotation
						JOINT RightArm
						{
							OFFSET -4.04833 -0.00133 0.12683
							CHANNELS 3 Zrotation Yrotation Xrotation
							JOINT RightForeArm
							{
								OFFSET -10.37987 -0.01039 -0.55511
								CHANNELS 3 Zrotation Yrotation Xrotation
								JOINT RightHand
								{
									OFFSET -8.67398 0.07538 0.40058
									CHANNELS 3 Zrotation Yrotation Xrotation
									End Site
									{
										OFFSET -5.24810 -0.21916 0.59204
									}
								}
							}
						}
					}
				}
			}
		}
	}
	JOINT LeftUpLegDummy
	{
		OFFSET 0 0 0
		CHANNELS 3 Zrotation Yrotation Xrotation
		JOINT LeftUpLeg
		{
			OFFSET 3.52197 -3.41223 0.04002
			CHANNELS 3 Zrotation Yrotation Xrotation
			JOINT LeftLeg
			{
				OFFSET -0.00012 -17.42399 1.60337
				CHANNELS 3 Zrotation Yrotation Xrotation
				JOINT LeftFoot
				{
					OFFSET -0.09972 -16.50070 -1.63802
					CHANNELS 3 Zrotation Yrotation Xrotation
					JOINT LeftToes
					{
						OFFSET -0.01575 -1.73823 3.34611
						CHANNELS 3 Zrotation Yrotation Xrotation
						End Site
						{
							OFFSET 0.03150 -0.01868 3.85031
						}
					}
				}
			}
		}
	}
}
MOTION
Frames: 8
Frame Time: 0.033333
-0.1523 40.0927 -2.3812 -1.7702 -3.3365 -1.6982 0.0000 0.0000 0.0000 -0.3316 -2.1972 2.5502 -1.7680 -3.0816 3.4621 1.3566 -0.0976 -3.5975 0.0000 -0.0000 0.0000 0.0000 0.0000 0.0000 0.1415 0.0073 2.1046 3.0103 -0.6028 1.4213 -0.0000 0.0000 -0.0000 2.7792 -0.1976 -2.1932 -0.0000 0.0000 -0.0000 -34.1639 -2.6194 2.4613 -45.7772 -16.4617 -16.6445 -10.6352 5.1004 48.9761 14.9307 -3.8557 -1.1605 -0.0000 0.0000 -0.0000 34.8575 5.1670 3.5445 40.1337 7.4733 -16.0008 10.7742 -0.1087 25.3586 -13.4768 2.8609 -0.9367 0.0000 0.0000 0.0000 3.7372 2.9350 2.3485 3.1297 11.7341 6.5820 -0.8942 0.0804 -5.4884 0.0000 0.0000 -0.0000
-0.1487 40.0927 -2.3869 -1.7902 -3.3811 -1.6807 0.0000 0.0000 0.0000 -0.3219 -2.1972 2.5325 -1.7479 -3.0317 3.4363 1.3567 -0.0977 -3.5697 0.0000 -0.0000 0.0000 0.0000 0.0000 0.0000 0.1617 -0.0173 2.1555 3.0223 -0.6290 1.3329 -0.0000 0.0000 -0.0000 2.7624 -0.2116 -2.2508 -0.0000 0.0000 -0.0000 -34.1902 -2.6068 2.4578 -45.6400 -16.4533 -16.6631 -10.6354 5.1001 49.0683 14.7557 -3.8340 -1.1437 -0.0000 0.0000 -0.0000 34.8843 5.1793 3.5519 40.0842 7.4227 -16.2088 10.7247 -0.2857 25.0457 -12.9242 2.4985 -0.8593 0.0000 0.0000 0.0000 3.7546 2.9462 2.3240 3.1331 11.7653 6.5885 -0.9223 0.0822 -5.4884 0.0000 0.0000 -0.0000
-0.1431 40.0927 -2.3926 -1.8326 -3.4619 -1.6307 0.0000 0.0000 0.0000 -0.2976 -2.1972 2.4991 -1.7079 -2.9535 3.3636 1.3568 -0.0979 -3.5193 0.0000 -0.0000 0.0000 0.0000 0.0000 0.0000 0.1691 -0.0783 2.1798 3.0822 -0.7011 1.2182 -0.0000 0.0000 -0.0000 2.7298 -0.1330 -2.3100 -0.0000 0.0000 -0.0000 -34.2263 -2.5650 2.4433 -45.3679 -16.4909 -16.7183 -10.6380 5.0986 49.2307 14.6066 -3.8978 -1.1393 -0.0000 0.0000 -0.0000 34.9468 5.2016 3.5665 39.9367 7.4103 -16.5002 10.6720 -0.7989 24.8193 -12.2661 2.1758 -0.7820 0.0000 0.0000 0.0000 3.7934 2.9715 2.2704 3.1362 11.8160 6.6017 -0.9473 0.0838 -5.4885 0.0000 0.0000 -0.0000
-0.1393 40.0927 -2.3935 -1.8713 -3.5392 -1.5874 0.0000 0.0000 0.0000 -0.2742 -2.1972 2.4937 -1.6701 -2.8819 3.2648 1.3607 -0.0983 -3.4764 0.0000 -0.0000 0.0000 0.0000 0.0000 0.0000 0.1331 -0.1325 2.1650 3.1850 -0.7745 1.1516 -0.0000 0.0000 -0.0000 2.7143 0.0108 -2.3077 -0.0000 0.0000 -0.0000 -34.2225 -2.5284 2.4283 -45.1010 -16.4879 -16.7709 -10.6523 5.0926 49.2239 14.5507 -3.9343 -1.1391 -0.0000 0.0000 -0.0000 35.0197 5.2191 3.5802 39.7744 7.3210 -16.6025 10.6709 -1.2565 25.0376 -12.0722 2.2414 -0.7758 0.0000 0.0000 0.0000 3.8269 2.9903 2.2414 3.1432 11.8711 6.6013 -0.9539 0.0842 -5.4885 0.0000 0.0000 -0.0000
-0.1379 40.0927 -2.3943 -1.8853 -3.6063 -1.5882 0.0000 0.0000 0.0000 -0.2678 -2.1972 2.5247 -1.6496 -2.8129 3.1924 1.3697 -0.0989 -3.4565 0.0000 -0.0000 0.0000 0.0000 0.0000 0.0000 0.0644 -0.1460 2.1913 3.2839 -0.8046 1.1158 -0.0000 0.0000 -0.0000 2.7488 0.0907 -2.2910 -0.0000 0.0000 -0.0000 -34.1644 -2.5290 2.4250 -44.9202 -16.3750 -16.8434 -10.6430 5.0941 49.1803 14.3861 -3.8410 -1.1148 -0.0000 0.0000 -0.0000 35.0768 5.2272 3.5885 39.6936 7.0703 -16.4980 10.7166 -1.3250 25.3525 -12.2482 2.4351 -0.8065 0.0000 0.0000 0.0000 3.8372 2.9960 2.2723 3.1493 11.9313 6.5737 -0.9605 0.0846 -5.4885 0.0000 0.0000 -0.0000
-0.1369 40.0927 -2.3950 -1.8908 -3.6688 -1.6168 0.0000 0.0000 0.0000 -0.2605 -2.1903 2.5616 -1.6510 -2.7564 3.1613 1.3790 -0.0995 -3.4444 0.0000 -0.0000 0.0000 0.0000 0.0000 0.0000 -0.0050 -0.1408 2.2752 3.3613 -0.8111 1.0832 -0.0000 0.0000 -0.0000 2.8039 0.0997 -2.3476 -0.0000 0.0000 -0.0000 -34.0870 -2.5551 2.4308 -44.7936 -16.2413 -16.9683 -10.5734 5.0893 49.3719 14.2149 -3.7603 -1.0917 -0.0000 0.0000 -0.0000 35.1073 5.2309 3.5928 39.6867 6.8123 -16.3917 10.7606 -1.1971 25.3563 -12.4647 2.4043 -0.8181 0.0000 0.0000 0.0000 3.8456 3.0068 2.3242 3.1472 11.9814 6.5495 -0.9743 0.0855 -5.4911 0.0000 0.0000 -0.0000
-0.1343 40.0927 -2.3948 -1.9113 -3.7144 -1.6274 0.0000 0.0000 0.0000 -0.2318 -2.1641 2.5774 -1.6690 -2.7397 3.1404 1.3796 -0.0996 -3.4238 0.0000 -0.0000 0.0000 0.0000 0.0000 0.0000 -0.0594 -0.1537 2.3394 3.4321 -0.8359 1.0584 -0.0000 0.0000 -0.0000 2.8297 0.1216 -2.4762 -0.0000 0.0000 -0.0000 -34.0176 -2.5863 2.4390 -44.6595 -16.2020 -17.0967 -10.5026 5.0820 49.6467 14.3914 -3.8131 -1.1120 -0.0000 0.0000 -0.0000 35.1313 5.2355 3.5968 39.6669 6.7044 -16.4321 10.7652 -1.2486 25.2157 -12.6133 2.2507 -0.8126 0.0000 0.0000 0.0000 3.8703 3.0283 2.3350 3.1443 12.0051 6.5643 -0.9806 0.0859 -5.5047 0.0000 0.0000 -0.0000
-0.1298 40.0927 -2.3927 -1.9307 -3.7365 -1.5993 0.0000 0.0000 0.0000 -0.2089 -2.1384 2.5550 -1.6850 -2.7449 3.1281 1.3770 -0.0995 -3.4098 0.0000 -0.0000 0.0000 0.0000 0.0000 0.0000 -0.0982 -0.1742 2.3360 3.4716 -0.8630 1.0387 -0.0000 0.0000 -0.0000 2.8509 0.1398 -2.5799 -0.0000 0.0000 -0.0000 -33.9305 -2.6275 2.4500 -44.5258 -16.2497 -17.1780 -10.4855 5.0808 49.6945 14.8470 -3.8825 -1.1570 -0.0000 0.0000 -0.0000 35.1855 5.2422 3.6044 39.5880 6.6846 -16.5647 10.7386 -1.5012 25.2730 -12.7278 2.2913 -0.8244 0.0000 0.0000 0.0000 3.8834 3.0371 2.2947 3.1526 12.0221 6.6027 -0.9721 0.0854 -5.5248 0.0000 0.0000 -0.0000
